<?xml version="1.0" standalone="no"?>
<!DOCTYPE svg PUBLIC "-//W3C//DTD SVG 20010904//EN"
 "http://www.w3.org/TR/2001/REC-SVG-20010904/DTD/svg10.dtd">
<svg version="1.0" xmlns="http://www.w3.org/2000/svg"
 width="1080.000000pt" height="1080.000000pt" viewBox="0 0 1080.000000 1080.000000"
 preserveAspectRatio="xMidYMid meet">
<metadata>
Created by potrace 1.11, written by Peter Selinger 2001-2013
</metadata>
<g transform="translate(0.000000,1080.000000) scale(0.100000,-0.100000)"
fill="#000000" stroke="none">
<path d="M2895 10788 c-16 -6 -50 -25 -75 -42 -42 -29 -50 -31 -121 -28 -100
5 -184 -18 -238 -66 l-41 -36 -118 -2 c-64 -1 -130 -5 -147 -8 -60 -14 -173
-76 -206 -113 -33 -38 -33 -38 -115 -39 -157 -1 -276 -72 -308 -184 -22 -78
-15 -159 21 -236 13 -30 12 -35 -22 -98 -63 -113 -56 -202 22 -325 34 -52 35
-57 23 -91 -7 -19 -13 -55 -13 -80 1 -46 48 -180 64 -180 5 0 9 -5 9 -11 0 -6
16 -31 36 -55 36 -43 37 -47 38 -132 1 -69 6 -97 24 -134 21 -43 124 -158 142
-158 4 0 8 -23 9 -50 4 -118 97 -252 236 -337 48 -30 65 -50 65 -77 0 -20 35
-100 55 -124 37 -46 136 -120 167 -126 7 -1 40 -12 73 -25 45 -16 61 -27 62
-42 2 -26 44 -97 77 -130 26 -26 113 -77 143 -84 10 -2 45 -12 78 -23 l59 -18
-89 -56 c-104 -64 -185 -118 -201 -133 -6 -5 -23 -19 -38 -30 -91 -66 -240
-213 -311 -306 -106 -139 -203 -332 -245 -485 -12 -44 -25 -86 -28 -94 -3 -8
-6 -19 -6 -25 -1 -5 -7 -35 -14 -65 -13 -61 -19 -102 -27 -205 -3 -38 -8 -80
-11 -93 -3 -13 -5 -62 -5 -109 0 -70 -4 -92 -22 -122 -13 -20 -29 -49 -37 -65
-8 -16 -26 -36 -40 -44 -152 -95 -323 -272 -442 -457 -47 -72 -151 -265 -143
-265 2 0 -7 -25 -20 -55 -14 -30 -23 -55 -20 -55 2 0 -4 -20 -15 -45 -11 -25
-20 -47 -20 -50 0 -3 0 -6 -1 -7 0 -2 -2 -11 -4 -22 -2 -10 -9 -39 -15 -65
-27 -117 -35 -196 -35 -361 0 -195 24 -352 71 -475 9 -22 18 -48 19 -57 5 -24
53 -131 89 -198 46 -86 127 -207 199 -298 37 -46 65 -88 62 -92 -3 -5 -1 -11
5 -15 6 -4 8 -10 6 -14 -9 -14 89 -359 124 -436 5 -11 16 -40 24 -65 8 -25 20
-58 27 -75 7 -16 13 -32 14 -35 0 -3 8 -27 17 -55 9 -27 20 -72 23 -100 11
-85 66 -276 106 -370 7 -16 13 -32 14 -35 13 -42 84 -173 152 -278 188 -289
556 -595 828 -687 27 -10 74 -36 105 -59 77 -59 229 -166 236 -166 8 0 69 -44
72 -52 2 -5 7 -8 12 -8 4 0 39 -19 76 -42 164 -99 340 -187 513 -254 134 -52
161 -65 161 -75 0 -3 35 -37 78 -74 42 -36 92 -80 109 -95 62 -56 264 -182
376 -235 187 -90 370 -142 572 -162 133 -14 410 -7 520 12 46 8 146 30 163 35
4 1 12 3 17 4 37 5 237 82 310 118 62 31 196 108 205 118 3 3 28 20 55 39 69
48 178 138 252 207 33 33 67 60 75 62 74 18 397 164 533 242 22 13 49 28 60
34 76 43 305 196 426 286 44 33 88 60 97 60 47 0 312 152 432 248 68 54 68 54
169 154 92 92 190 210 247 298 16 25 32 47 35 50 16 12 140 283 163 355 36
115 63 222 70 280 7 51 33 142 46 160 13 18 142 407 156 470 1 6 7 30 14 55 7
25 15 60 17 79 2 23 24 59 65 110 121 149 223 322 277 466 12 33 27 68 32 77
5 10 9 26 9 36 0 10 3 22 7 26 4 3 8 12 9 19 1 7 9 48 19 92 43 206 41 458 -5
665 -6 25 -12 56 -15 68 -6 33 -64 197 -91 260 -13 29 -23 54 -24 57 0 2 -16
32 -35 66 -19 33 -35 63 -35 65 0 4 -64 98 -110 164 -35 47 -84 102 -161 179
-78 77 -94 91 -176 148 -47 33 -70 58 -96 106 -33 60 -35 67 -41 201 -4 77 -9
142 -11 145 -1 3 -6 39 -9 79 -10 111 -54 295 -101 417 -133 344 -338 581
-713 821 -70 45 -126 85 -124 88 1 3 3 6 5 6 1 0 29 9 62 20 33 11 61 21 62
21 2 0 23 8 47 19 57 24 116 78 139 127 11 21 24 49 30 62 8 17 31 31 72 46
160 56 244 135 281 263 14 46 22 56 68 86 82 53 174 149 204 214 15 32 28 82
30 114 4 48 9 60 30 74 44 29 92 87 122 149 25 52 28 70 27 135 -3 74 -2 76
39 130 88 116 125 240 93 315 -16 39 -15 45 26 105 47 70 70 145 61 204 -7 44
-57 154 -76 166 -4 3 0 22 10 43 44 89 46 196 6 275 -48 95 -171 152 -315 146
-52 -2 -56 0 -97 41 -46 47 -143 97 -214 112 -25 5 -93 9 -150 9 l-105 -1 -39
37 c-51 48 -132 71 -235 67 -72 -3 -79 -1 -124 29 -26 18 -47 31 -47 28 0 -3
-16 2 -35 10 -52 22 -189 18 -271 -7 l-67 -21 -38 21 c-32 18 -53 21 -167 21
-93 0 -140 -4 -166 -15 -20 -8 -39 -16 -43 -17 -5 0 -23 -7 -41 -15 -29 -12
-41 -12 -87 2 -88 25 -160 14 -262 -40 -82 -44 -88 -46 -142 -38 -31 4 -69 6
-86 5 -49 -3 -125 -23 -125 -33 0 -5 -3 -8 -7 -7 -15 5 -78 -42 -138 -102
l-60 -60 -75 0 c-54 0 -82 -5 -101 -18 -15 -9 -46 -30 -70 -46 -49 -33 -189
-171 -234 -231 -17 -22 -32 -42 -35 -45 -48 -44 -221 -377 -255 -490 -19 -64
-29 -89 -34 -84 -3 3 -6 9 -6 12 -1 12 -37 115 -53 152 -9 19 -16 37 -17 40
-3 17 -80 168 -118 233 -102 171 -225 311 -365 415 l-84 62 -78 0 -77 0 -69
68 c-38 37 -92 79 -119 94 -47 25 -134 47 -166 43 -84 -13 -138 -15 -143 -7
-6 10 -116 66 -156 78 -41 13 -132 12 -182 -3 -46 -13 -51 -13 -120 17 -69 28
-80 30 -206 30 -119 0 -137 -2 -163 -21 l-29 -20 -73 20 c-81 23 -229 27 -282
9z m693 -295 c82 -44 130 -77 227 -158 l48 -40 27 34 c23 27 28 41 26 80 -2
25 -7 55 -11 65 -8 19 -7 19 22 -2 17 -12 36 -22 42 -22 6 0 11 -4 11 -8 0 -4
15 -16 33 -27 17 -10 72 -59 121 -108 l89 -90 24 27 c25 29 26 35 24 114 -2
51 -1 52 18 40 25 -15 178 -173 270 -277 52 -58 66 -70 76 -59 15 16 45 104
45 132 0 17 12 8 58 -40 125 -134 215 -260 293 -410 72 -139 118 -263 137
-374 8 -41 8 -222 1 -265 -15 -89 -83 -209 -161 -281 -57 -54 -166 -124 -191
-124 -9 0 -114 75 -127 91 -9 11 -130 96 -270 191 -251 169 -460 289 -745 428
-187 91 -571 260 -592 260 -5 0 -28 9 -51 20 -22 11 -46 20 -52 20 -5 0 -18 4
-28 10 -9 5 -46 19 -82 31 -36 12 -71 26 -77 31 -7 6 -13 8 -13 4 0 -3 -24 4
-52 15 -75 29 -49 10 62 -47 89 -45 372 -197 450 -242 19 -11 69 -39 110 -62
76 -43 308 -182 345 -206 264 -176 350 -234 450 -309 66 -49 122 -92 125 -95
3 -3 19 -16 35 -29 56 -43 159 -136 247 -224 l87 -87 -26 -73 c-14 -39 -28
-74 -32 -77 -3 -3 -15 -23 -26 -45 -11 -22 -24 -45 -30 -51 -5 -6 -17 -22 -25
-34 -8 -12 -33 -40 -55 -62 -220 -220 -573 -336 -1043 -342 -113 -2 -155 5
-112 19 33 10 100 74 100 95 0 19 -44 39 -85 40 -30 0 -130 8 -130 9 0 1 -29
3 -65 6 -77 4 -182 28 -238 53 l-40 18 47 17 c45 16 100 61 89 72 -3 3 -68 25
-144 49 -77 24 -171 57 -211 75 -71 31 -142 71 -143 81 0 3 27 6 60 7 60 2
130 24 130 41 0 4 -61 39 -134 76 -171 86 -352 205 -335 220 2 2 39 6 81 10
127 11 133 18 56 67 -107 69 -275 207 -315 259 -10 13 -1 15 68 16 57 0 83 4
95 15 13 14 8 22 -57 80 -112 101 -197 188 -229 237 -17 25 -28 47 -26 49 2 2
23 -1 47 -6 79 -19 179 -6 179 21 0 13 -145 150 -200 188 -15 11 -100 133
-100 144 0 8 28 11 99 8 54 -2 101 0 104 5 16 26 -58 197 -132 306 -28 42 -51
78 -51 79 0 2 101 4 224 4 123 1 236 4 251 8 l27 7 -66 64 -65 65 27 7 c43 12
262 8 318 -6 29 -7 58 -14 65 -15 36 -7 77 -19 111 -31 28 -11 38 -11 46 -2
31 40 17 83 -44 136 -20 18 -34 35 -31 37 11 12 326 -62 399 -93 42 -18 63
-13 71 16 6 24 -36 94 -67 111 -12 6 -29 22 -38 35 l-18 24 93 -25 c156 -42
239 -76 355 -146 38 -23 56 -15 66 32 5 26 -8 74 -24 90 -3 3 -16 18 -30 34
l-25 28 25 -7 c14 -4 63 -27 108 -52z m3782 49 c0 -4 -11 -19 -24 -33 -49 -53
-59 -101 -28 -139 l17 -21 45 26 c25 14 52 30 60 35 40 24 134 61 215 84 142
42 155 45 155 36 0 -4 -22 -27 -49 -52 -50 -45 -71 -76 -71 -102 0 -19 31 -50
39 -39 9 12 176 63 254 79 12 2 47 9 77 15 127 25 121 27 67 -29 -52 -52 -65
-95 -40 -124 13 -14 18 -15 47 -3 18 8 44 16 57 19 13 3 66 14 116 25 67 14
123 19 200 17 156 -4 157 -6 82 -82 -62 -62 -62 -63 -36 -69 15 -4 127 -8 251
-8 149 -1 222 -5 218 -12 -3 -5 -27 -43 -54 -83 -72 -111 -116 -211 -121 -277
-2 -19 4 -20 101 -20 56 1 102 -2 102 -6 0 -24 -94 -140 -158 -195 -162 -140
-166 -145 -106 -164 35 -12 118 -9 172 6 l23 7 -23 -39 c-20 -35 -159 -180
-266 -277 -23 -21 -42 -43 -42 -48 0 -14 60 -26 123 -24 31 1 57 -2 57 -5 0
-12 -132 -133 -190 -175 -30 -21 -57 -42 -60 -46 -3 -3 -31 -22 -62 -42 -32
-20 -58 -41 -58 -46 0 -6 17 -13 38 -18 20 -4 40 -8 45 -9 4 -1 32 -2 63 -3
l56 -1 -44 -37 c-68 -58 -163 -116 -305 -187 -73 -37 -135 -71 -138 -76 -9
-14 78 -41 137 -43 47 -2 55 -4 45 -16 -7 -8 -32 -24 -57 -35 -25 -12 -56 -28
-70 -36 -14 -8 -29 -15 -35 -16 -5 -2 -66 -22 -135 -44 -69 -23 -142 -47 -164
-54 l-38 -12 33 -32 c18 -18 51 -37 74 -43 l40 -11 -35 -18 c-70 -35 -174 -54
-360 -65 -127 -7 -177 -24 -161 -53 15 -28 61 -70 91 -84 16 -7 27 -15 25 -18
-2 -3 -59 -5 -127 -4 -660 7 -1089 231 -1223 638 l-16 49 98 97 c124 121 215
199 368 315 33 24 65 49 71 54 10 8 92 65 191 134 30 20 59 37 63 37 5 0 10 3
12 8 2 4 28 23 58 42 30 19 57 37 60 40 3 3 16 11 30 19 14 8 87 52 163 98 75
46 139 83 142 83 2 0 29 16 59 35 30 19 57 35 60 35 2 0 42 22 88 48 46 26
103 58 128 71 25 12 70 36 100 52 30 17 99 53 153 81 54 28 96 53 93 56 -3 3
-23 -2 -43 -11 -21 -9 -78 -30 -128 -47 -49 -17 -103 -37 -120 -44 -16 -8 -50
-21 -75 -29 -215 -73 -833 -365 -980 -464 -19 -13 -38 -23 -42 -23 -4 0 -65
-36 -135 -80 -146 -91 -127 -79 -258 -170 -55 -38 -108 -75 -119 -82 -10 -7
-63 -48 -116 -90 l-98 -77 -61 37 c-164 99 -251 209 -288 362 -13 53 -18 161
-11 218 11 81 16 117 18 117 1 0 3 8 5 17 19 98 112 303 200 438 47 72 142
198 174 231 9 9 31 33 50 53 18 21 36 34 40 29 4 -4 15 -33 24 -64 25 -81 37
-88 76 -42 113 132 253 276 301 310 20 14 20 14 14 -40 -7 -57 13 -120 42
-131 8 -3 49 31 106 88 75 75 215 183 225 172 1 -1 -4 -20 -12 -43 -12 -36
-13 -47 -1 -75 8 -18 24 -42 35 -52 21 -19 21 -19 43 0 13 10 30 26 38 34 42
42 142 109 228 152 104 52 102 51 102 40z m-1775 -2766 c22 -4 74 -14 115 -23
41 -10 77 -17 80 -18 20 -3 122 -41 151 -56 20 -10 39 -15 43 -12 3 4 6 1 6
-6 0 -7 4 -10 8 -7 4 2 32 -9 62 -26 30 -17 71 -39 90 -49 47 -26 71 -41 88
-57 8 -7 27 -21 41 -30 65 -42 159 -139 213 -220 63 -95 84 -196 61 -297 -30
-133 -157 -263 -335 -344 -60 -27 -97 -42 -108 -43 -3 0 -13 -4 -23 -10 -25
-13 -199 -55 -262 -64 -27 -3 -59 -8 -70 -10 -117 -24 -474 -23 -590 1 -11 3
-38 7 -60 10 -22 3 -69 13 -105 21 -36 9 -72 17 -80 19 -8 2 -35 11 -60 20
-25 9 -57 20 -72 25 -44 14 -168 78 -228 118 -120 79 -234 221 -255 318 -18
80 7 196 52 242 7 7 13 18 13 22 0 15 162 172 211 205 24 16 46 32 49 36 13
14 136 83 206 115 86 39 214 86 214 78 0 -3 6 -2 13 3 6 4 17 8 22 9 6 1 45 9
88 19 42 9 83 15 90 12 6 -2 21 -1 32 3 23 8 241 5 300 -4z m-1625 -212 c14
-3 43 -8 65 -10 64 -7 72 -9 89 -23 44 -37 -42 -178 -236 -386 -60 -65 -158
-162 -283 -280 -11 -11 -55 -49 -95 -85 -41 -36 -77 -68 -80 -71 -3 -3 -50
-43 -105 -88 -55 -46 -109 -91 -120 -100 -136 -114 -539 -389 -583 -397 -7 -1
-25 -10 -40 -20 -15 -10 -31 -19 -37 -20 -5 -1 -32 -9 -59 -18 -27 -9 -61 -14
-76 -11 -47 10 -54 39 -46 187 8 159 11 186 37 303 20 89 72 238 91 263 6 6 8
12 5 12 -3 0 5 19 19 43 13 23 32 58 43 77 38 69 115 165 197 244 88 86 175
156 193 156 6 0 11 5 11 10 0 6 5 10 11 10 6 0 23 9 38 19 34 25 226 110 261
116 15 3 46 11 69 20 52 18 200 45 301 54 82 8 290 4 330 -5z m3265 -28 c54
-4 133 -16 205 -32 14 -3 36 -7 50 -10 89 -17 266 -90 370 -152 132 -79 261
-191 340 -292 19 -25 37 -47 41 -50 20 -16 131 -218 146 -265 1 -5 18 -56 38
-112 19 -56 37 -119 40 -140 3 -21 8 -49 10 -63 25 -159 27 -352 4 -375 -37
-37 -137 -12 -292 74 -59 33 -113 65 -120 71 -6 6 -50 36 -97 67 -47 31 -86
60 -88 65 -2 4 -8 8 -13 8 -8 0 -116 80 -155 115 -31 27 -55 45 -60 45 -4 0
-14 8 -23 18 -9 9 -33 30 -53 45 -158 117 -527 464 -668 627 -36 41 -68 77
-71 80 -23 20 -98 143 -109 177 -12 39 -11 45 5 63 10 11 20 18 22 16 2 -2 21
0 41 5 20 5 80 11 132 15 52 3 96 7 97 8 2 2 136 -3 208 -8z m-431 -1100 c203
-21 426 -110 616 -245 124 -87 273 -237 349 -350 14 -20 27 -38 31 -41 8 -7
110 -186 110 -194 0 -3 9 -25 19 -49 21 -47 61 -154 66 -177 2 -8 10 -46 19
-85 23 -99 33 -215 30 -320 -1 -49 -4 -92 -5 -95 -1 -3 -1 -8 0 -12 0 -4 -6
-40 -15 -80 -8 -40 -17 -82 -19 -92 -39 -182 -196 -419 -360 -543 -130 -98
-313 -171 -473 -190 -70 -8 -214 -11 -226 -4 -5 2 -29 6 -53 8 -167 12 -416
113 -602 244 -78 55 -247 216 -297 284 -16 22 -34 46 -41 53 -49 52 -164 275
-206 402 -58 173 -69 244 -70 435 0 147 4 193 28 285 10 36 18 70 20 75 1 6 6
19 10 30 5 11 16 41 26 66 29 75 113 210 173 276 104 114 246 211 386 263 36
13 66 24 67 23 2 -1 24 4 50 12 27 8 75 17 108 20 33 4 61 7 62 8 3 4 142 -1
197 -7z m-2433 -71 c247 -43 460 -175 612 -380 97 -131 161 -287 193 -475 24
-141 7 -393 -34 -527 -6 -18 -8 -33 -5 -33 3 0 0 -7 -7 -15 -7 -8 -10 -15 -6
-15 3 0 -3 -24 -15 -52 -89 -229 -195 -394 -359 -558 -211 -211 -431 -333
-710 -395 -82 -18 -238 -24 -325 -14 -116 14 -131 18 -225 50 -404 137 -664
512 -674 972 -9 416 200 861 535 1137 29 25 56 47 59 51 8 9 128 89 134 89 3
0 27 13 53 28 52 31 184 88 223 96 14 3 50 13 80 22 30 8 78 18 105 21 28 3
52 7 54 9 11 10 237 2 312 -11z m4279 -668 c33 -18 72 -40 84 -50 157 -115
207 -161 301 -278 89 -110 197 -319 220 -422 2 -12 11 -49 19 -82 37 -152 39
-412 5 -564 -6 -25 -12 -55 -13 -66 -1 -12 -5 -25 -8 -30 -3 -6 -8 -23 -12
-40 -4 -16 -13 -43 -21 -60 -20 -46 -37 -93 -37 -102 0 -4 -9 -19 -19 -32 -11
-13 -19 -28 -19 -32 0 -28 -100 -167 -176 -246 -82 -85 -139 -96 -214 -43
-156 111 -332 606 -376 1060 -3 36 -8 68 -10 71 -5 9 -17 227 -17 324 -1 313
62 538 165 588 40 20 94 21 128 4z m-6343 -46 c70 -51 123 -193 141 -381 13
-146 5 -421 -18 -575 -5 -33 -11 -87 -15 -120 -4 -33 -13 -87 -20 -120 -8 -33
-16 -73 -18 -90 -3 -16 -10 -50 -17 -75 -12 -45 -17 -65 -26 -109 -3 -13 -13
-48 -24 -78 -10 -29 -16 -53 -13 -53 3 0 1 -6 -4 -12 -6 -7 -18 -38 -28 -68
-22 -67 -87 -199 -127 -258 -60 -87 -128 -131 -192 -124 -28 3 -51 20 -111 79
-41 40 -75 78 -75 83 0 5 -6 15 -13 22 -40 39 -109 168 -151 281 -92 247 -113
504 -60 770 66 331 287 640 588 821 77 46 126 48 183 7z m3263 -1535 c19 -2
53 -7 75 -9 115 -15 302 -78 423 -143 187 -101 291 -198 460 -429 33 -46 104
-219 123 -303 20 -91 23 -121 23 -242 0 -150 -6 -200 -38 -306 -77 -256 -236
-466 -473 -624 -129 -86 -324 -168 -440 -186 -21 -3 -58 -10 -83 -16 -61 -14
-280 -18 -359 -7 -36 5 -81 11 -100 14 -20 3 -61 12 -91 21 -30 9 -63 16 -72
17 -10 1 -18 5 -18 9 0 4 -3 7 -7 6 -14 -5 -220 85 -233 101 -3 3 -16 12 -30
19 -83 42 -249 191 -321 287 -87 116 -156 245 -175 328 -1 4 -2 8 -4 10 -1 1
-3 9 -5 17 -2 8 -10 40 -18 70 -19 71 -18 63 -20 215 -1 146 3 192 28 284 17
68 62 188 77 207 4 6 20 33 34 60 14 27 34 58 45 70 10 11 19 25 19 31 0 14
182 199 235 239 59 45 143 97 205 128 97 49 282 109 376 121 16 2 29 4 29 5 0
1 31 4 70 6 38 3 70 6 71 7 4 3 158 -2 194 -7z m2712 -430 c62 -8 162 -63 198
-108 68 -84 134 -248 156 -383 3 -22 8 -43 10 -46 20 -34 24 -401 4 -504 -7
-39 -15 -79 -16 -90 -1 -11 -3 -20 -4 -20 -1 0 -4 -13 -6 -30 -7 -42 -72 -212
-101 -264 -136 -245 -377 -496 -616 -640 -105 -64 -280 -136 -377 -156 -8 -2
-17 -4 -20 -5 -3 -1 -9 -3 -15 -4 -165 -28 -251 -28 -405 -1 -59 10 -167 62
-206 100 -43 40 -92 131 -99 182 -2 16 -4 28 -5 28 -13 0 -20 204 -10 277 5
35 11 81 14 103 9 73 47 218 73 285 3 8 7 20 8 26 4 19 98 239 104 244 3 3 19
30 35 60 31 58 131 216 150 236 6 6 27 31 46 55 140 173 464 457 615 541 38
21 138 71 145 73 3 0 28 9 55 18 87 30 167 37 267 23z m-5514 -190 c11 -4 29
-8 39 -10 75 -15 295 -127 388 -198 6 -4 37 -28 71 -52 131 -97 299 -264 395
-393 27 -38 53 -73 58 -79 24 -30 112 -202 144 -280 32 -79 74 -203 82 -244 2
-8 4 -17 5 -20 1 -3 2 -8 2 -11 -1 -4 3 -21 8 -39 22 -76 32 -300 18 -375 -31
-160 -88 -248 -193 -295 -134 -61 -299 -69 -523 -26 -125 24 -388 148 -489
230 -10 8 -38 31 -63 51 -291 236 -461 523 -541 915 -29 142 -31 379 -5 494
31 136 98 250 176 298 39 24 120 48 185 54 33 3 61 7 63 9 3 3 155 -21 180
-29z m3052 -2020 c30 -4 79 -12 108 -17 29 -6 65 -12 80 -14 50 -7 256 -63
327 -90 209 -79 325 -188 309 -291 -16 -104 -159 -284 -314 -395 -25 -18 -46
-36 -48 -41 -2 -4 -7 -8 -12 -8 -5 0 -36 -18 -69 -40 -33 -22 -62 -40 -65 -40
-3 0 -28 -13 -56 -30 -28 -16 -57 -30 -63 -30 -7 0 -18 -5 -25 -12 -6 -6 -17
-13 -24 -14 -7 -2 -55 -18 -105 -37 -51 -19 -93 -32 -93 -30 0 3 -7 0 -15 -7
-8 -7 -15 -10 -15 -7 0 2 -28 -2 -62 -10 -92 -21 -375 -26 -466 -8 -41 8 -77
14 -80 13 -4 -1 -14 1 -22 4 -8 3 -61 20 -117 38 -56 18 -146 54 -200 80 -99
47 -245 135 -251 151 -2 5 -8 9 -14 9 -12 0 -115 86 -168 140 -88 89 -147 184
-144 230 4 72 39 125 127 197 23 18 165 89 227 113 165 64 453 132 619 145 35
3 66 7 68 9 6 6 505 -1 563 -8z"/>
</g>
</svg>
